<svg width="1516" height="505" viewBox="0 0 1516 505" fill="none" xmlns="http://www.w3.org/2000/svg">
<path d="M707.356 229.17V162.963H658.046V229.17H624.943V84.6875H658.046V143.653H707.356V84.6875H740.805V229.17H707.356ZM834.896 209.86C844.091 209.86 848.689 206.642 848.689 200.205V113.653C848.689 107.216 844.091 103.998 834.896 103.998H819.723C810.298 103.998 805.585 107.216 805.585 113.653V200.205C805.585 206.642 810.298 209.86 819.723 209.86H834.896ZM772.482 110.55C772.482 102.734 776.39 96.5266 784.206 91.9289C792.252 87.1013 801.907 84.6875 813.171 84.6875H841.447C859.148 84.6875 871.562 89.63 878.689 99.5151C880.987 102.734 882.137 106.412 882.137 110.55V203.308C882.137 211.124 878.114 217.446 870.068 222.274C862.252 226.871 852.712 229.17 841.447 229.17H813.171C795.47 229.17 783.056 224.228 775.93 214.343C773.631 211.124 772.482 207.446 772.482 203.308V110.55ZM975.867 145.722C985.293 145.722 990.005 142.504 990.005 136.067V113.653C990.005 107.216 985.293 103.998 975.867 103.998H949.316V145.722H975.867ZM983.109 165.032L1030.69 229.17H995.867L949.316 166.412V229.17H916.212V84.6875H982.764C993.798 84.6875 1003.22 86.9863 1011.04 91.584C1019.09 96.1817 1023.11 102.504 1023.11 110.55V139.17C1023.11 147.216 1019.2 153.538 1011.38 158.136C1003.57 162.734 994.143 165.032 983.109 165.032ZM1053.62 229.17V84.6875H1086.72V229.17H1053.62ZM1116.04 84.6875H1222.25V102.619L1150.52 209.86H1221.9V229.17H1115.35V211.239L1187.42 103.998H1116.04V84.6875ZM1313.43 209.86C1322.63 209.86 1327.22 206.642 1327.22 200.205V113.653C1327.22 107.216 1322.63 103.998 1313.43 103.998H1298.26C1288.83 103.998 1284.12 107.216 1284.12 113.653V200.205C1284.12 206.642 1288.83 209.86 1298.26 209.86H1313.43ZM1251.02 110.55C1251.02 102.734 1254.92 96.5266 1262.74 91.9289C1270.79 87.1013 1280.44 84.6875 1291.71 84.6875H1319.98C1337.68 84.6875 1350.1 89.63 1357.22 99.5151C1359.52 102.734 1360.67 106.412 1360.67 110.55V203.308C1360.67 211.124 1356.65 217.446 1348.6 222.274C1340.79 226.871 1331.25 229.17 1319.98 229.17H1291.71C1274.01 229.17 1261.59 224.228 1254.47 214.343C1252.17 211.124 1251.02 207.446 1251.02 203.308V110.55ZM1394.75 229.17V84.6875H1428.89L1480.61 172.963V85.0323H1514.06V229.17H1479.23L1427.85 142.274V229.17H1394.75ZM841.396 426.722H891.396L866.568 362.584L841.396 426.722ZM890.361 335.688L943.12 480.17H910.016L897.947 446.032H834.844L823.12 480.17H790.016L842.43 335.688H890.361ZM1026.58 396.722C1036.01 396.722 1040.72 393.504 1040.72 387.067V364.653C1040.72 358.216 1036.01 354.998 1026.58 354.998H1000.03V396.722H1026.58ZM1033.82 416.032L1081.41 480.17H1046.58L1000.03 417.412V480.17H966.925V335.688H1033.48C1044.51 335.688 1053.94 337.986 1061.75 342.584C1069.8 347.182 1073.82 353.504 1073.82 361.55V390.17C1073.82 398.216 1069.91 404.538 1062.1 409.136C1054.28 413.734 1044.86 416.032 1033.82 416.032ZM1158.81 460.86C1168.01 460.86 1172.61 457.642 1172.61 451.205V434.998H1205.71V454.308C1205.71 462.354 1201.57 468.676 1193.3 473.274C1185.71 477.871 1176.4 480.17 1165.37 480.17H1142.26C1124.56 480.17 1112.15 475.228 1105.02 465.343C1102.72 462.124 1101.57 458.446 1101.57 454.308V361.55C1101.57 353.734 1105.48 347.527 1113.3 342.929C1121.34 338.101 1131 335.688 1142.26 335.688H1165.37C1176.4 335.688 1185.83 337.986 1193.64 342.584C1201.69 347.182 1205.71 353.504 1205.71 361.55V380.86H1172.61V364.653C1172.61 358.216 1168.01 354.998 1158.81 354.998H1148.81C1139.39 354.998 1134.68 358.216 1134.68 364.653V451.205C1134.68 457.642 1139.39 460.86 1148.81 460.86H1158.81ZM1318.64 480.17V413.963H1269.33V480.17H1236.22V335.688H1269.33V394.653H1318.64V335.688H1352.08V480.17H1318.64Z" fill="#CACACA"/>
<path d="M132.242 385.87V409.103L230.204 503.17V406.837L174.732 354.703V377.37L213.681 414.77V463.504L132.242 385.87Z" fill="#CACACA"/>
<path d="M123.401 367.107H99.2054L1.24414 273.039H101.566L155.858 326.306H132.253L93.3041 288.906H42.5531L123.401 367.107Z" fill="#CACACA"/>
<path d="M123.399 137.68H99.2034L1.24219 231.748H101.564L155.856 178.48H132.251L93.3022 215.881H42.5511L123.399 137.68Z" fill="#CACACA"/>
<path d="M132.242 118.473V95.2388L230.204 1.17188V97.5055L174.732 149.64V126.973L213.68 89.5721V40.8386L132.242 118.473Z" fill="#CACACA"/>
<path d="M186.547 265.946V281.52L252.211 344.573V280L215.028 245.055V260.249L241.135 285.318V317.984L186.547 265.946Z" fill="#CACACA"/>
<path d="M186.547 238.58V223.006L252.211 159.953V224.526L215.028 259.471V244.277L241.135 219.208V186.542L186.547 238.58Z" fill="#CACACA"/>
<path d="M237.593 314.952H221.375L155.711 251.898H222.957L259.349 287.603H243.526L217.419 262.533H183.401L237.593 314.952Z" fill="#CACACA"/>
<path d="M238.189 189.078H221.971L156.307 252.132H223.553L259.945 216.427H244.122L218.015 241.497H183.997L238.189 189.078Z" fill="#CACACA"/>
<path d="M372.241 385.87V409.103L274.279 503.17V406.836L329.752 354.703V377.37L290.803 414.77V463.503L372.241 385.87Z" fill="#CACACA"/>
<path d="M381.085 367.107H405.28L503.241 273.039H402.919L348.627 326.306H372.233L411.181 288.906H461.932L381.085 367.107Z" fill="#CACACA"/>
<path d="M381.086 137.68H405.281L503.242 231.748H402.92L348.629 178.48H372.234L411.182 215.881H461.933L381.086 137.68Z" fill="#CACACA"/>
<path d="M372.241 118.473V95.2388L274.279 1.17188V97.5055L329.752 149.64V126.973L290.803 89.5721V40.8386L372.241 118.473Z" fill="#CACACA"/>
<path d="M317.938 265.946V281.52L252.273 344.573V280L289.457 245.055V260.249L263.349 285.318V317.984L317.938 265.946Z" fill="#CACACA"/>
<path d="M317.938 238.58V223.006L252.273 159.953V224.526L289.457 259.471V244.277L263.349 219.208V186.542L317.938 238.58Z" fill="#CACACA"/>
<path d="M266.891 314.952H283.11L348.773 251.898H281.527L245.135 287.604H260.958L287.065 262.534H321.084L266.891 314.952Z" fill="#CACACA"/>
<path d="M266.297 189.078H282.515L348.178 252.132H280.933L244.541 216.427H260.363L286.47 241.497H320.489L266.297 189.078Z" fill="#CACACA"/>
<path d="M132.242 385.87V409.103L230.204 503.17V406.837L174.732 354.703V377.37L213.681 414.77V463.504L132.242 385.87Z" stroke="#CACACA"/>
<path d="M123.401 367.107H99.2054L1.24414 273.039H101.566L155.858 326.306H132.253L93.3041 288.906H42.5531L123.401 367.107Z" stroke="#CACACA"/>
<path d="M123.399 137.68H99.2034L1.24219 231.748H101.564L155.856 178.48H132.251L93.3022 215.881H42.5511L123.399 137.68Z" stroke="#CACACA"/>
<path d="M132.242 118.473V95.2388L230.204 1.17188V97.5055L174.732 149.64V126.973L213.68 89.5721V40.8386L132.242 118.473Z" stroke="#CACACA"/>
<path d="M186.547 265.946V281.52L252.211 344.573V280L215.028 245.055V260.249L241.135 285.318V317.984L186.547 265.946Z" stroke="#CACACA"/>
<path d="M186.547 238.58V223.006L252.211 159.953V224.526L215.028 259.471V244.277L241.135 219.208V186.542L186.547 238.58Z" stroke="#CACACA"/>
<path d="M237.593 314.952H221.375L155.711 251.898H222.957L259.349 287.603H243.526L217.419 262.533H183.401L237.593 314.952Z" stroke="#CACACA"/>
<path d="M238.189 189.078H221.971L156.307 252.132H223.553L259.945 216.427H244.122L218.015 241.497H183.997L238.189 189.078Z" stroke="#CACACA"/>
<path d="M372.241 385.87V409.103L274.279 503.17V406.836L329.752 354.703V377.37L290.803 414.77V463.503L372.241 385.87Z" stroke="#CACACA"/>
<path d="M381.085 367.107H405.28L503.241 273.039H402.919L348.627 326.306H372.233L411.181 288.906H461.932L381.085 367.107Z" stroke="#CACACA"/>
<path d="M381.086 137.68H405.281L503.242 231.748H402.92L348.629 178.48H372.234L411.182 215.881H461.933L381.086 137.68Z" stroke="#CACACA"/>
<path d="M372.241 118.473V95.2388L274.279 1.17188V97.5055L329.752 149.64V126.973L290.803 89.5721V40.8386L372.241 118.473Z" stroke="#CACACA"/>
<path d="M317.938 265.946V281.52L252.273 344.573V280L289.457 245.055V260.249L263.349 285.318V317.984L317.938 265.946Z" stroke="#CACACA"/>
<path d="M317.938 238.58V223.006L252.273 159.953V224.526L289.457 259.471V244.277L263.349 219.208V186.542L317.938 238.58Z" stroke="#CACACA"/>
<path d="M266.891 314.952H283.11L348.773 251.898H281.527L245.135 287.604H260.958L287.065 262.534H321.084L266.891 314.952Z" stroke="#CACACA"/>
<path d="M266.297 189.078H282.515L348.178 252.132H280.933L244.541 216.427H260.363L286.47 241.497H320.489L266.297 189.078Z" stroke="#CACACA"/>
</svg>
